# xmcd
#
# Track frame offsets: 
#        150
#        15874
#        32487
#        49132
#        67417
#        81584
#        100544
#        126176
#        143249
#        161068
#        192866
#        211535
#
# Disc length: 3261 seconds
#
# Revision: 0
# Processed by: cddbd v1.5.2PL0 Copyright (c) Steve Scherf et al.
# Submitted via: ExactAudioCopyFreeDBPlugin 1.0
#
DISCID=9e0cbb0c
DTITLE=Michael Bloomfield  - San Francisco Nights Live at the Old Wald
DTITLE=orff (April 18 1977) 
DYEAR=2018
DGENRE=Blues
TTITLE0=Greatest Gifts From Heaven
TTITLE1=Lo, Thou I Am With Thee
TTITLE2=Kansas City Blues
TTITLE3=Medley - Darktown Strutter's Ball and Mop Mop and Call Me A Dog
TTITLE4=I'm Glad I'm Jewish
TTITLE5=Eyesight To the Blind
TTITLE6=Uncle Bob's Barrelhouse Blues
TTITLE7=Jockey Blues
TTITLE8=Linda Lou
TTITLE9=Between a Hard Place and the Ground
TTITLE10=Vamp In C (Soul Serenade)
TTITLE11=Wee Wee Hours
EXTD=
EXTT0=
EXTT1=
EXTT2=
EXTT3=
EXTT4=
EXTT5=
EXTT6=
EXTT7=
EXTT8=
EXTT9=
EXTT10=
EXTT11=
PLAYORDER=
